PathFileType	4	(X/Y/Z)	RBDS002static.trc
DataRate	CameraRate	NumFrames	NumMarkers	Units	OrigDataRate	OrigDataStartFrame	OrigNumFrames
150.000000	150.000000	4	48	mm	150.000000	37	150
Frame#	Time	L.Ankle			L.Ankle.Medial			L.ASIS			L.GTR			L.Heel.Bottom			L.Heel.Lateral			L.Heel.Top			L.HF			L.Iliac.Crest			L.Knee			L.Knee.Medial			L.MT1			L.MT2			L.MT5			L.PSIS			L.Shank.Bottom.Lateral			L.Shank.Bottom.Medial			L.Shank.Top.Lateral			L.Shank.Top.Medial			L.Thigh.Bottom.Lateral			L.Thigh.Bottom.Medial			L.Thigh.Top.Lateral			L.Thigh.Top.Medial			L.TT			R.Ankle			R.Ankle.Medial			R.ASIS			R.GTR			R.Heel.Bottom			R.Heel.Lateral			R.Heel.Top			R.HF			R.Iliac.Crest			R.Knee			R.Knee.Medial			R.MT1			R.MT2			R.MT5			R.PSIS			R.Shank.Bottom.Lateral			R.Shank.Bottom.Medial			R.Shank.Top.Lateral			R.Shank.Top.Medial			R.Thigh.Bottom.Lateral			R.Thigh.Bottom.Medial			R.Thigh.Top.Lateral			R.Thigh.Top.Medial			R.TT			
		X1	Y1	Z1	X2	Y2	Z2	X3	Y3	Z3	X4	Y4	Z4	X5	Y5	Z5	X6	Y6	Z6	X7	Y7	Z7	X8	Y8	Z8	X9	Y9	Z9	X10	Y10	Z10	X11	Y11	Z11	X12	Y12	Z12	X13	Y13	Z13	X14	Y14	Z14	X15	Y15	Z15	X16	Y16	Z16	X17	Y17	Z17	X18	Y18	Z18	X19	Y19	Z19	X20	Y20	Z20	X21	Y21	Z21	X22	Y22	Z22	X23	Y23	Z23	X24	Y24	Z24	X25	Y25	Z25	X26	Y26	Z26	X27	Y27	Z27	X28	Y28	Z28	X29	Y29	Z29	X30	Y30	Z30	X31	Y31	Z31	X32	Y32	Z32	X33	Y33	Z33	X34	Y34	Z34	X35	Y35	Z35	X36	Y36	Z36	X37	Y37	Z37	X38	Y38	Z38	X39	Y39	Z39	X40	Y40	Z40	X41	Y41	Z41	X42	Y42	Z42	X43	Y43	Z43	X44	Y44	Z44	X45	Y45	Z45	X46	Y46	Z46	X47	Y47	Z47	X48	Y48	Z48	

38	0.2466666666666667	713.1729125976563	106.3089447021484	1030.54345703125	735.3790893554688	119.1181182861328	1112.07177734375	854.0249633789063	1050.650390625	1108.342895507813	775.72509765625	953.8538208007813	1031.64794921875	637.3629760742188	44.15517425537109	1072.240234375	670.45361328125	55.16671752929688	1027.264892578125	648.84912109375	94.16390228271484	1071.41064453125	723.3141479492188	483.9891052246094	1007.925842285156	767.739990234375	1129.633911132813	1051.62890625	736.2504272460938	551.9948120117188	1011.748291015625	715.1292724609375	530.0848999023438	1140.488403320313	864.9696655273438	63.64654541015625	1121.749145507813	871.5272216796875	71.24790191650391	1073.8232421875	838.7197875976563	47.47550201416016	1005.16650390625	666.1876831054688	1096.361206054688	1167.000854492188	701.7378540039063	176.4244384765625	1020.264953613281	663.0576782226563	175.5962677001953	1054.266235351563	691.420166015625	255.2248687744141	1004.50927734375	652.986083984375	259.2731628417969	1041.168823242188	725.982666015625	649.026123046875	1010.6337890625	673.5543823242188	641.904296875	1061.55078125	715.0025634765625	758.8468627929688	1019.684265136719	668.4501953125	752.178466796875	1070.019287109375	782.4647216796875	462.8714904785156	1062.542724609375	709.9669189453125	104.9671936035156	1411.244995117188	733.0364379882813	121.2629165649414	1327.284301757813	849.7844848632813	1049.934326171875	1326.6806640625	767.74609375	964.6875610351563	1398.797607421875	632.5552368164063	44.04511642456055	1374.600708007813	658.0353393554688	59.19655227661133	1412.343139648438	644.7318115234375	94.43904113769531	1373.222290039063	734.0337524414063	486.6561889648438	1422.7216796875	764.7356567382813	1132.805297851563	1374.219970703125	734.560546875	558.8587036132813	1415.554565429688	722.23388671875	535.8950805664063	1284.788696289063	862.4695434570313	66.25600433349609	1323.631713867188	865.8475952148438	74.74279022216797	1366.901245117188	838.3729858398438	56.99085235595703	1435.825439453125	664.8770141601563	1098.046508789063	1256.084716796875	697.3865356445313	189.1727142333984	1423.552124023438	657.5313720703125	191.3074035644531	1386.338989257813	688.6619873046875	268.9682312011719	1435.592407226563	651.1778564453125	270.4288940429688	1396.202270507813	718.7528686523438	660.1522827148438	1417.838623046875	665.825927734375	657.7391357421875	1365.756591796875	710.5471801757813	770.7413940429688	1417.188354492188	661.3240966796875	767.9258422851563	1366.991577148438	789.1973876953125	475.6849060058594	1367.433471679688	
39	0.2533333333333334	713.1671752929688	106.3108749389648	1030.53173828125	735.3748168945313	119.1105499267578	1112.061157226563	854.0097045898438	1050.653076171875	1108.340454101563	775.7176513671875	953.851318359375	1031.67626953125	637.3720703125	44.15615463256836	1072.248779296875	670.4567260742188	55.17315673828125	1027.25146484375	648.8507080078125	94.16947937011719	1071.408935546875	723.310791015625	483.9862976074219	1007.936096191406	767.7267456054688	1129.635009765625	1051.642700195313	736.242431640625	551.9996337890625	1011.750061035156	715.1301879882813	530.0684204101563	1140.489013671875	864.980224609375	63.65161895751953	1121.740966796875	871.52685546875	71.25078582763672	1073.824584960938	838.7303466796875	47.46757125854492	1005.168762207031	666.1749877929688	1096.356689453125	1167.024169921875	701.7435302734375	176.4158172607422	1020.274719238281	663.0551147460938	175.5947723388672	1054.269775390625	691.421875	255.2223358154297	1004.509521484375	652.9906616210938	259.2631225585938	1041.170288085938	725.9591674804688	649.0216674804688	1010.63818359375	673.5464477539063	641.9002075195313	1061.556884765625	714.990966796875	758.8497924804688	1019.693786621094	668.43994140625	752.1798095703125	1070.031616210938	782.4637451171875	462.8538513183594	1062.555541992188	709.9649047851563	104.9723663330078	1411.2373046875	733.0458374023438	121.2591781616211	1327.287719726563	849.7675170898438	1049.938110351563	1326.694213867188	767.7451782226563	964.6824951171875	1398.794555664063	632.5574951171875	44.05611801147461	1374.591064453125	658.0430297851563	59.19477081298828	1412.348388671875	644.7346801757813	94.44138336181641	1373.227905273438	734.033447265625	486.652099609375	1422.736938476563	764.7252197265625	1132.799438476563	1374.227905273438	734.5569458007813	558.8610229492188	1415.551147460938	722.2339477539063	535.8919677734375	1284.784301757813	862.425048828125	66.21225738525391	1323.651000976563	865.8536376953125	74.74805450439453	1366.900390625	838.3727416992188	56.98714447021484	1435.819091796875	664.8565673828125	1098.044067382813	1256.089477539063	697.3955078125	189.1735992431641	1423.557983398438	657.5276489257813	191.3035888671875	1386.33837890625	688.6616821289063	268.9681701660156	1435.590698242188	651.1747436523438	270.4292297363281	1396.205932617188	718.7454833984375	660.1569213867188	1417.839477539063	665.8211059570313	657.7412109375	1365.75146484375	710.5446166992188	770.7415161132813	1417.195556640625	661.3162841796875	767.918212890625	1366.982421875	789.1989135742188	475.68505859375	1367.428588867188	
40	0.26	713.1680297851563	106.3118286132813	1030.541870117188	735.3828735351563	119.1123733520508	1112.077392578125	853.98486328125	1050.652099609375	1108.349853515625	775.7018432617188	953.8632202148438	1031.658203125	637.3681030273438	44.1610107421875	1072.2392578125	670.4562377929688	55.16536331176758	1027.2509765625	648.8453369140625	94.16416168212891	1071.40869140625	723.3143310546875	483.9920654296875	1007.930725097656	767.7095336914063	1129.647705078125	1051.651245117188	736.2303466796875	552.0023803710938	1011.756103515625	715.124755859375	530.0615844726563	1140.506958007813	864.978271484375	63.64956283569336	1121.74365234375	871.5302734375	71.24903869628906	1073.821655273438	838.728271484375	47.47025299072266	1005.172302246094	666.1561279296875	1096.361328125	1167.022216796875	701.732666015625	176.4183044433594	1020.275207519531	663.052734375	175.5981292724609	1054.265502929688	691.4116821289063	255.2246398925781	1004.518005371094	652.9852905273438	259.2570190429688	1041.17919921875	725.9451293945313	649.0192260742188	1010.647583007813	673.5269165039063	641.8987426757813	1061.569702148438	714.9674072265625	758.8541870117188	1019.70263671875	668.4271240234375	752.17578125	1070.02685546875	782.4578857421875	462.8485107421875	1062.561645507813	709.9684448242188	104.9797515869141	1411.24365234375	733.0263671875	121.2530288696289	1327.295776367188	849.7593994140625	1049.947998046875	1326.697265625	767.7310180664063	964.6757202148438	1398.803588867188	632.5540161132813	44.05115509033203	1374.587646484375	658.047607421875	59.20415878295898	1412.3427734375	644.7382202148438	94.44513702392578	1373.221435546875	734.0361938476563	486.6525268554688	1422.725341796875	764.7105102539063	1132.805541992188	1374.234252929688	734.556396484375	558.850341796875	1415.5615234375	722.2298583984375	535.8900146484375	1284.785888671875	862.4158935546875	66.21250915527344	1323.6416015625	865.8546752929688	74.74150848388672	1366.905151367188	838.3802490234375	56.98239517211914	1435.814453125	664.8414306640625	1098.0517578125	1256.10498046875	697.3986206054688	189.1721649169922	1423.551147460938	657.5288696289063	191.3092498779297	1386.341674804688	688.653564453125	268.97119140625	1435.591186523438	651.17333984375	270.4306640625	1396.206298828125	718.7402954101563	660.147216796875	1417.845458984375	665.8197021484375	657.7212524414063	1365.7705078125	710.5352783203125	770.7399291992188	1417.200805664063	661.307373046875	767.9163208007813	1366.986572265625	789.2005615234375	475.6838989257813	1367.43115234375	
41	0.2666666666666667	713.1746215820313	106.3121719360352	1030.539184570313	735.3837280273438	119.1192321777344	1112.08447265625	853.9580688476563	1050.6484375	1108.360229492188	775.6981201171875	953.8536376953125	1031.67138671875	637.3639526367188	44.16205215454102	1072.2431640625	670.4564819335938	55.16812515258789	1027.254028320313	648.8504638671875	94.17205047607422	1071.412109375	723.3021850585938	483.9950561523438	1007.941650390625	767.6984252929688	1129.647705078125	1051.65283203125	736.2161865234375	551.9966430664063	1011.756042480469	715.1175537109375	530.0464477539063	1140.515014648438	864.978271484375	63.64524841308594	1121.741577148438	871.5321655273438	71.24178314208984	1073.820068359375	838.7300415039063	47.47404098510742	1005.174255371094	666.1432495117188	1096.363159179688	1167.025146484375	701.7384033203125	176.4180145263672	1020.264709472656	663.0508422851563	175.5879974365234	1054.27294921875	691.4115600585938	255.2314910888672	1004.514892578125	652.9788208007813	259.2599182128906	1041.1865234375	725.9285888671875	649.023193359375	1010.653930664063	673.5131225585938	641.8994140625	1061.565551757813	714.9568481445313	758.8460083007813	1019.708801269531	668.4098510742188	752.1751708984375	1070.03759765625	782.4423217773438	462.8430480957031	1062.576293945313	709.9698486328125	104.9865493774414	1411.24853515625	733.0478515625	121.2596206665039	1327.283569335938	849.7413940429688	1049.937377929688	1326.717163085938	767.7229614257813	964.6848754882813	1398.812377929688	632.5562133789063	44.05430221557617	1374.586669921875	658.0494384765625	59.19807434082031	1412.337280273438	644.7373046875	94.43985748291016	1373.228149414063	734.0405883789063	486.645751953125	1422.733642578125	764.7046508789063	1132.793701171875	1374.257080078125	734.569580078125	558.8549194335938	1415.559448242188	722.2290649414063	535.9025268554688	1284.793212890625	862.417236328125	66.20889282226563	1323.638427734375	865.8526000976563	74.74272155761719	1366.899536132813	838.3851928710938	56.98487091064453	1435.8134765625	664.823974609375	1098.046875	1256.111572265625	697.3933715820313	189.1764373779297	1423.560180664063	657.5220947265625	191.3052062988281	1386.339599609375	688.6675415039063	268.9646301269531	1435.585205078125	651.1691284179688	270.4267578125	1396.202880859375	718.734130859375	660.1563110351563	1417.859619140625	665.82421875	657.7289428710938	1365.76953125	710.5260620117188	770.7364501953125	1417.198364257813	661.3004760742188	767.9151000976563	1366.987548828125	789.1988525390625	475.6833190917969	1367.432495117188	
